<svg version="1.1" viewBox="0.0 0.0 960.0 540.0" fill="none" stroke="none" stroke-linecap="square" stroke-miterlimit="10" xmlns:xlink="http://www.w3.org/1999/xlink" xmlns="http://www.w3.org/2000/svg"><clipPath id="gdddd457635_0_0.0"><path d="m0 0l960.0 0l0 540.0l-960.0 0l0 -540.0z" clip-rule="nonzero"/></clipPath><g clip-path="url(#gdddd457635_0_0.0)"><path fill="#ffffff" d="m0 0l960.0 0l0 540.0l-960.0 0z" fill-rule="evenodd"/><path fill="#eeeeee" d="m-12.041995 -7.4960628l977.03937 0l0 554.99207l-977.03937 0z" fill-rule="evenodd"/><path fill="#cccccc" d="m261.7438 46.948154l0 0c0 -4.7313843 3.8355408 -8.566929 8.566925 -8.566929l634.2992 0c2.2720947 0 4.451172 0.9025841 6.0577393 2.5091972c1.6066284 1.6066093 2.5092163 3.7856407 2.5092163 6.0577316l0 0l0 0c0 4.7313843 -3.8355713 8.566929 -8.566956 8.566929l-634.2992 0c-4.7313843 0 -8.566925 -3.8355446 -8.566925 -8.566929z" fill-rule="evenodd"/><path fill="#666666" d="m220.70866 46.944763l0 0c0 -4.7313843 3.8355408 -8.566929 8.566925 -8.566929l0 0c2.2720947 0 4.451126 0.9025841 6.0577393 2.5091934c1.6066132 1.6066132 2.5091858 3.7856445 2.5091858 6.0577354l0 0c0 4.7313843 -3.8355408 8.566929 -8.566925 8.566929l0 0c-4.7313843 0 -8.566925 -3.8355446 -8.566925 -8.566929z" fill-rule="evenodd"/><path fill="#cccccc" d="m-26.0 493.05774l0 0c0 -4.7313843 3.8355446 -8.566925 8.566929 -8.566925l246.70866 0c2.2720947 0 4.451126 0.9025879 6.0577393 2.5091858c1.6066132 1.6066284 2.5091858 3.7856445 2.5091858 6.0577393l0 0l0 0c0 4.7313843 -3.8355408 8.566925 -8.566925 8.566925l-246.70866 0l0 0c-4.7313843 0 -8.566929 -3.8355408 -8.566929 -8.566925z" fill-rule="evenodd"/><path fill="#666666" d="m258.70865 493.05237l0 0c0 -4.7313843 3.8355713 -8.566925 8.566956 -8.566925l0 0c2.2720642 0 4.451111 0.9025879 6.0577087 2.5091858c1.6066284 1.6066284 2.5092163 3.7856445 2.5092163 6.0577393l0 0c0 4.7313843 -3.8355408 8.566925 -8.566925 8.566925l0 0c-4.7313843 0 -8.566956 -3.8355408 -8.566956 -8.566925z" fill-rule="evenodd"/></g></svg>